<?xml version="1.0" encoding="utf-8"?>
<!-- Generator: Adobe Illustrator 24.1.0, SVG Export Plug-In . SVG Version: 6.00 Build 0)  -->
<svg version="1.1" id="Layer_1" xmlns="http://www.w3.org/2000/svg" xmlns:xlink="http://www.w3.org/1999/xlink" x="0px" y="0px"
	 viewBox="0 0 620 292" style="enable-background:new 0 0 620 292;" xml:space="preserve">
<style type="text/css">
	.st0{display:none;}
	.st1{display:inline;fill:#FFFFFF;}
	.st2{font-family:'PVC-BannerUltra';}
	.st3{font-size:163.1957px;}
	.st4{letter-spacing:-32;}
	.st5{display:inline;}
</style>
<g>
	<path d="M327.31,73.01h-36.17V0.02h-72.99v36.17h-36.39V0.02H-0.37v291.95h182.14v-36.82h36.82V73.01h35.73v109.15h36.82v109.81
		h72.99V182.16h-36.82V73.01z M145.6,255.15H72.61V36.19h72.99V255.15z"/>
	<rect x="400.95" y="0.02" width="36.17" height="72.99"/>
	<rect x="364.13" y="73.01" width="36.82" height="109.15"/>
	<polygon points="584.21,182.16 584.21,73.01 547.39,73.01 547.39,0.02 474.4,0.02 474.4,109.18 511.22,109.18 511.22,182.16 
		474.4,182.16 474.4,109.18 437.58,109.18 437.58,182.16 401.41,182.16 401.41,291.98 437.58,291.98 437.58,218.99 547.39,218.99 
		547.39,291.98 620.37,291.98 620.37,182.16 	"/>
</g>
<text transform="matrix(1 0 0 1 -81.3184 202.3013)" class="st0"><tspan x="0" y="0" class="st1 st2 st3">D</tspan><tspan x="108.69" y="0" class="st1 st2 st3 st4">V</tspan><tspan x="167.11" y="0" class="st1 st2 st3">A</tspan></text>
<g class="st0">
	<path class="st5" d="M185.16,116.8c0,22.99-3,42.66-9.01,59c-6.01,16.34-14.63,29.68-25.87,40.01
		c-11.24,10.34-24.9,17.92-40.98,22.77c-16.08,4.84-35.23,7.27-57.45,7.27H-8.01c-4.26,0-7.85-1.26-10.75-3.78
		c-2.91-2.52-4.36-6.62-4.36-12.3V11.2c0-5.68,1.45-9.78,4.36-12.3c2.91-2.52,6.49-3.78,10.75-3.78h64.33
		c22.35,0,41.3,2.62,56.87,7.85c15.56,5.23,28.68,12.98,39.33,23.25c10.66,10.27,18.76,22.96,24.32,38.07
		C182.38,79.4,185.16,96.91,185.16,116.8z M132.46,118.54c0-11.88-1.39-22.93-4.17-33.13c-2.78-10.2-7.24-19.05-13.37-26.54
		c-6.14-7.49-14.02-13.34-23.64-17.53c-9.62-4.2-22.25-6.3-37.88-6.3H27.64v170.5h26.54c13.95,0,25.7-1.81,35.26-5.43
		c9.56-3.61,17.53-9.07,23.93-16.37c6.39-7.3,11.17-16.37,14.34-27.22C130.88,145.67,132.46,133.01,132.46,118.54z"/>
	<path class="st5" d="M345.98,236.92c-0.65,2.2-1.49,3.97-2.52,5.33c-1.04,1.36-2.71,2.39-5.04,3.1c-2.32,0.71-5.49,1.16-9.49,1.36
		c-4.01,0.19-9.24,0.29-15.69,0.29c-5.17,0-9.59-0.03-13.27-0.1c-3.68-0.07-6.81-0.23-9.4-0.48c-2.59-0.26-4.68-0.64-6.3-1.16
		c-1.62-0.51-2.97-1.16-4.07-1.94c-1.1-0.78-1.94-1.71-2.52-2.81c-0.58-1.1-1.13-2.49-1.65-4.17l-74.6-222.23
		c-1.55-4.65-2.49-8.33-2.81-11.04c-0.32-2.71,0.32-4.75,1.94-6.1c1.61-1.36,4.36-2.19,8.23-2.52c3.87-0.32,9.3-0.48,16.28-0.48
		c5.94,0,10.59,0.13,13.95,0.39c3.36,0.26,5.94,0.71,7.75,1.36c1.81,0.65,3.07,1.62,3.78,2.91c0.71,1.29,1.39,2.91,2.03,4.84
		l61.03,193.37h0.19l59.87-192.4c0.51-2.19,1.16-3.97,1.94-5.33c0.78-1.36,2.1-2.42,3.97-3.2c1.87-0.78,4.55-1.29,8.04-1.55
		c3.49-0.26,8.26-0.39,14.34-0.39c5.94,0,10.56,0.19,13.85,0.58s5.55,1.33,6.78,2.81c1.23,1.49,1.61,3.58,1.16,6.3
		c-0.46,2.71-1.45,6.33-3,10.85L345.98,236.92z"/>
	<path class="st5" d="M640.09,226.85c1.55,4.65,2.52,8.33,2.91,11.04c0.39,2.71-0.13,4.75-1.55,6.1c-1.42,1.36-3.94,2.19-7.56,2.52
		c-3.62,0.32-8.59,0.49-14.92,0.49c-6.59,0-11.72-0.1-15.4-0.29c-3.68-0.19-6.49-0.58-8.43-1.16c-1.94-0.58-3.29-1.39-4.07-2.42
		c-0.77-1.03-1.42-2.39-1.94-4.07l-16.86-50.38h-94.16l-15.89,49.02c-0.52,1.81-1.2,3.33-2.03,4.55c-0.84,1.23-2.2,2.2-4.07,2.91
		c-1.87,0.71-4.52,1.19-7.94,1.45c-3.42,0.26-7.91,0.39-13.47,0.39c-5.94,0-10.59-0.19-13.95-0.58c-3.36-0.39-5.69-1.32-6.97-2.81
		c-1.29-1.48-1.74-3.58-1.36-6.3c0.39-2.71,1.36-6.33,2.91-10.85L492.65,4.03c0.78-2.19,1.68-3.97,2.71-5.33
		c1.03-1.36,2.68-2.39,4.94-3.1c2.26-0.71,5.39-1.16,9.4-1.36c4-0.19,9.3-0.29,15.89-0.29c7.62,0,13.69,0.1,18.21,0.29
		c4.52,0.19,8.04,0.65,10.56,1.36c2.52,0.71,4.33,1.78,5.43,3.2c1.1,1.42,2.03,3.36,2.81,5.81L640.09,226.85z M525,42.98h-0.19
		l-35.46,106.57h71.11L525,42.98z"/>
</g>
<g class="st0">
	<path class="st1" d="M36.87-171.19h89.87c28.19,0,49.78,5.73,64.76,17.18c14.98,11.45,22.47,32.75,22.47,63.88v472.25
		c0,30.55-8.08,51.69-24.23,63.44c-16.16,11.76-38.04,17.62-65.64,17.62H36.87V-171.19z M111.76-107.75v503.97h10.57
		c5.86,0,10.13-1.76,12.78-5.29c2.64-3.52,3.96-8.51,3.96-14.98V-89.25c0-6.46-1.47-11.15-4.41-14.1
		c-2.95-2.93-7.35-4.41-13.22-4.41H111.76z"/>
	<path class="st1" d="M283.56,463.19l-59.03-634.37h72.25l21.15,327.76l4.41,126.87l3.52-126.87l20.27-327.76h71.37l-54.63,634.37
		H283.56z"/>
	<path class="st1" d="M507.35,400.63h-35.24l-3.52,62.56H398.1l52.86-634.37h75.77l56.39,634.37h-72.25L507.35,400.63z
		 M475.64,333.67h28.19l-10.57-192.95L489.73-0.26l-4.41,140.97L475.64,333.67z"/>
</g>
</svg>
